<svg width="442" height="309" viewBox="0 0 442 309" fill="none" xmlns="http://www.w3.org/2000/svg">
<path d="M169 87L181 49" stroke="#FFD700"/>
<path d="M229 109L246 55" stroke="#FFD700"/>
<path d="M234 109L260 78" stroke="#FFD700"/>
<path d="M269 68L285 49" stroke="#FFD700"/>
<path d="M293 40L326 2" stroke="#FFD700"/>
<path d="M385 61L441 2" stroke="#FFD700"/>
<path d="M347 101L377 68" stroke="#FFD700"/>
<path d="M296 154L334 114" stroke="#FFD700"/>
<path d="M184 40L196 2" stroke="#FFD700"/>
<path d="M250 41L262 1" stroke="#FFD700"/>
<line x1="137.475" y1="185.155" x2="122.475" y2="231.155" stroke="#FFD700"/>
<line x1="133.744" y1="182.43" x2="91.7443" y2="157.43" stroke="#FFD700"/>
<line x1="133.744" y1="182.43" x2="91.7443" y2="157.43" stroke="#FFD700"/>
<line x1="165.588" y1="86.0793" x2="129.767" y2="62.4297" stroke="#FFD700"/>
<line x1="42.7443" y1="127.43" x2="0.744258" y2="102.43" stroke="#FFD700"/>
<line x1="91.4574" y1="39.9755" x2="68.9621" y2="25.0437" stroke="#FFD700"/>
<line x1="82.3886" y1="151.993" x2="50.7371" y2="132.425" stroke="#FFD700"/>
<line x1="114.479" y1="258.144" x2="99.4789" y2="308.144" stroke="#FFD700"/>
<line x1="189.479" y1="258.144" x2="174.479" y2="308.144" stroke="#FFD700"/>
<line x1="242.458" y1="257.799" x2="264.458" y2="307.799" stroke="#FFD700"/>
<line x1="209.479" y1="191.144" x2="194.479" y2="241.144" stroke="#FFD700"/>
<line x1="213.454" y1="190.791" x2="236.454" y2="240.791" stroke="#FFD700"/>
<line x1="297.458" y1="157.8" x2="325.458" y2="221.8" stroke="#FFD700"/>
<line x1="333.459" y1="238.801" x2="363.459" y2="307.801" stroke="#FFD700"/>
</svg>
